<svg xmlns="http://www.w3.org/2000/svg" width="281" height="184" viewBox="-140 -96 281 184">
<path d="M-23.3,-53.8 L-30.1,-37.2 L-20.4,-47.1 L-13.6,-63.7 Z" fill="rgb(235,242,254)" fill-opacity="0.92" stroke="#64748b" stroke-width="0.45"/>
<path d="M-13.6,-63.7 L-20.4,-47.1 L-10.7,-55.2 L-3.9,-71.8 Z" fill="rgb(235,242,254)" fill-opacity="0.92" stroke="#64748b" stroke-width="0.45"/>
<path d="M-30.1,-37.2 L-37.0,-22.4 L-27.2,-32.2 L-20.4,-47.1 Z" fill="rgb(235,242,254)" fill-opacity="0.92" stroke="#64748b" stroke-width="0.45"/>
<path d="M-3.9,-71.8 L-10.7,-55.2 L-1.0,-61.7 L5.9,-78.3 Z" fill="rgb(235,242,254)" fill-opacity="0.92" stroke="#64748b" stroke-width="0.45"/>
<path d="M-20.4,-47.1 L-27.2,-32.2 L-17.5,-40.4 L-10.7,-55.2 Z" fill="rgb(235,242,254)" fill-opacity="0.92" stroke="#64748b" stroke-width="0.45"/>
<path d="M-37.0,-22.4 L-43.8,-9.2 L-34.0,-19.0 L-27.2,-32.2 Z" fill="rgb(235,242,254)" fill-opacity="0.92" stroke="#64748b" stroke-width="0.45"/>
<path d="M5.9,-78.3 L-1.0,-61.7 L8.8,-66.5 L15.6,-83.1 Z" fill="rgb(236,242,254)" fill-opacity="0.92" stroke="#64748b" stroke-width="0.45"/>
<path d="M-10.7,-55.2 L-17.5,-40.4 L-7.8,-46.8 L-1.0,-61.7 Z" fill="rgb(236,243,254)" fill-opacity="0.92" stroke="#64748b" stroke-width="0.45"/>
<path d="M-27.2,-32.2 L-34.0,-19.0 L-24.3,-27.2 L-17.5,-40.4 Z" fill="rgb(236,242,254)" fill-opacity="0.92" stroke="#64748b" stroke-width="0.45"/>
<path d="M15.6,-83.1 L8.8,-66.5 L18.5,-69.6 L25.3,-86.2 Z" fill="rgb(236,243,254)" fill-opacity="0.92" stroke="#64748b" stroke-width="0.45"/>
<path d="M-43.8,-9.2 L-50.6,2.4 L-40.8,-7.5 L-34.0,-19.0 Z" fill="rgb(235,242,254)" fill-opacity="0.92" stroke="#64748b" stroke-width="0.45"/>
<path d="M-1.0,-61.7 L-7.8,-46.8 L2.0,-51.6 L8.8,-66.5 Z" fill="rgb(236,243,254)" fill-opacity="0.92" stroke="#64748b" stroke-width="0.45"/>
<path d="M-17.5,-40.4 L-24.3,-27.2 L-14.6,-33.6 L-7.8,-46.8 Z" fill="rgb(236,243,254)" fill-opacity="0.92" stroke="#64748b" stroke-width="0.45"/>
<path d="M25.3,-86.2 L18.5,-69.6 L28.2,-71.1 L35.0,-87.6 Z" fill="rgb(236,243,254)" fill-opacity="0.92" stroke="#64748b" stroke-width="0.45"/>
<path d="M-34.0,-19.0 L-40.8,-7.5 L-31.1,-15.6 L-24.3,-27.2 Z" fill="rgb(236,243,254)" fill-opacity="0.92" stroke="#64748b" stroke-width="0.45"/>
<path d="M8.8,-66.5 L2.0,-51.6 L11.7,-54.8 L18.5,-69.6 Z" fill="rgb(236,243,254)" fill-opacity="0.92" stroke="#64748b" stroke-width="0.45"/>
<path d="M-50.6,2.4 L-57.4,12.2 L-47.7,2.4 L-40.8,-7.5 Z" fill="rgb(235,242,254)" fill-opacity="0.92" stroke="#64748b" stroke-width="0.45"/>
<path d="M-7.8,-46.8 L-14.6,-33.6 L-4.9,-38.4 L2.0,-51.6 Z" fill="rgb(236,243,254)" fill-opacity="0.92" stroke="#64748b" stroke-width="0.45"/>
<path d="M35.0,-87.6 L28.2,-71.1 L38.0,-70.8 L44.8,-87.4 Z" fill="rgb(235,242,254)" fill-opacity="0.92" stroke="#64748b" stroke-width="0.45"/>
<path d="M-24.3,-27.2 L-31.1,-15.6 L-21.4,-22.1 L-14.6,-33.6 Z" fill="rgb(236,243,254)" fill-opacity="0.92" stroke="#64748b" stroke-width="0.45"/>
<path d="M18.5,-69.6 L11.7,-54.8 L21.4,-56.2 L28.2,-71.1 Z" fill="rgb(236,243,254)" fill-opacity="0.92" stroke="#64748b" stroke-width="0.45"/>
<path d="M-40.8,-7.5 L-47.7,2.4 L-37.9,-5.8 L-31.1,-15.6 Z" fill="rgb(236,242,254)" fill-opacity="0.92" stroke="#64748b" stroke-width="0.45"/>
<path d="M2.0,-51.6 L-4.9,-38.4 L4.9,-41.5 L11.7,-54.8 Z" fill="rgb(237,243,254)" fill-opacity="0.92" stroke="#64748b" stroke-width="0.45"/>
<path d="M44.8,-87.4 L38.0,-70.8 L47.7,-68.9 L54.5,-85.5 Z" fill="rgb(235,242,254)" fill-opacity="0.92" stroke="#64748b" stroke-width="0.45"/>
<path d="M-57.4,12.2 L-64.2,20.4 L-54.5,10.5 L-47.7,2.4 Z" fill="rgb(235,242,254)" fill-opacity="0.92" stroke="#64748b" stroke-width="0.45"/>
<path d="M-14.6,-33.6 L-21.4,-22.1 L-11.7,-26.9 L-4.9,-38.4 Z" fill="rgb(237,243,254)" fill-opacity="0.92" stroke="#64748b" stroke-width="0.45"/>
<path d="M28.2,-71.1 L21.4,-56.2 L31.1,-55.9 L38.0,-70.8 Z" fill="rgb(236,243,254)" fill-opacity="0.92" stroke="#64748b" stroke-width="0.45"/>
<path d="M-31.1,-15.6 L-37.9,-5.8 L-28.2,-12.3 L-21.4,-22.1 Z" fill="rgb(236,243,254)" fill-opacity="0.92" stroke="#64748b" stroke-width="0.45"/>
<path d="M11.7,-54.8 L4.9,-41.5 L14.6,-43.0 L21.4,-56.2 Z" fill="rgb(237,243,254)" fill-opacity="0.92" stroke="#64748b" stroke-width="0.45"/>
<path d="M54.5,-85.5 L47.7,-68.9 L57.4,-65.3 L64.2,-81.8 Z" fill="rgb(234,242,254)" fill-opacity="0.92" stroke="#64748b" stroke-width="0.45"/>
<path d="M-47.7,2.4 L-54.5,10.5 L-44.7,2.4 L-37.9,-5.8 Z" fill="rgb(235,242,254)" fill-opacity="0.92" stroke="#64748b" stroke-width="0.45"/>
<path d="M-4.9,-38.4 L-11.7,-26.9 L-1.9,-30.0 L4.9,-41.5 Z" fill="rgb(237,243,254)" fill-opacity="0.92" stroke="#64748b" stroke-width="0.45"/>
<path d="M38.0,-70.8 L31.1,-55.9 L40.9,-54.0 L47.7,-68.9 Z" fill="rgb(235,242,254)" fill-opacity="0.92" stroke="#64748b" stroke-width="0.45"/>
<path d="M-64.2,20.4 L-71.0,26.8 L-61.3,17.0 L-54.5,10.5 Z" fill="rgb(234,242,254)" fill-opacity="0.92" stroke="#64748b" stroke-width="0.45"/>
<path d="M-21.4,-22.1 L-28.2,-12.3 L-18.5,-17.1 L-11.7,-26.9 Z" fill="rgb(237,243,254)" fill-opacity="0.92" stroke="#64748b" stroke-width="0.45"/>
<path d="M21.4,-56.2 L14.6,-43.0 L24.3,-42.7 L31.1,-55.9 Z" fill="rgb(236,243,254)" fill-opacity="0.92" stroke="#64748b" stroke-width="0.45"/>
<path d="M64.2,-81.8 L57.4,-65.3 L67.1,-60.0 L73.9,-76.6 Z" fill="rgb(233,241,254)" fill-opacity="0.92" stroke="#64748b" stroke-width="0.45"/>
<path d="M-37.9,-5.8 L-44.7,2.4 L-35.0,-4.1 L-28.2,-12.3 Z" fill="rgb(236,243,254)" fill-opacity="0.92" stroke="#64748b" stroke-width="0.45"/>
<path d="M4.9,-41.5 L-1.9,-30.0 L7.8,-31.5 L14.6,-43.0 Z" fill="rgb(237,243,254)" fill-opacity="0.92" stroke="#64748b" stroke-width="0.45"/>
<path d="M47.7,-68.9 L40.9,-54.0 L50.6,-50.4 L57.4,-65.3 Z" fill="rgb(235,242,254)" fill-opacity="0.92" stroke="#64748b" stroke-width="0.45"/>
<path d="M-54.5,10.5 L-61.3,17.0 L-51.6,8.8 L-44.7,2.4 Z" fill="rgb(235,242,254)" fill-opacity="0.92" stroke="#64748b" stroke-width="0.45"/>
<path d="M-11.7,-26.9 L-18.5,-17.1 L-8.7,-20.2 L-1.9,-30.0 Z" fill="rgb(237,243,254)" fill-opacity="0.92" stroke="#64748b" stroke-width="0.45"/>
<path d="M31.1,-55.9 L24.3,-42.7 L34.1,-40.8 L40.9,-54.0 Z" fill="rgb(236,243,254)" fill-opacity="0.92" stroke="#64748b" stroke-width="0.45"/>
<path d="M-71.0,26.8 L-77.8,31.6 L-68.1,21.8 L-61.3,17.0 Z" fill="rgb(233,241,254)" fill-opacity="0.92" stroke="#64748b" stroke-width="0.45"/>
<path d="M73.9,-76.6 L67.1,-60.0 L76.9,-53.0 L83.7,-69.6 Z" fill="rgb(233,241,254)" fill-opacity="0.92" stroke="#64748b" stroke-width="0.45"/>
<path d="M-28.2,-12.3 L-35.0,-4.1 L-25.3,-8.9 L-18.5,-17.1 Z" fill="rgb(237,243,254)" fill-opacity="0.92" stroke="#64748b" stroke-width="0.45"/>
<path d="M14.6,-43.0 L7.8,-31.5 L17.5,-31.2 L24.3,-42.7 Z" fill="rgb(237,243,254)" fill-opacity="0.92" stroke="#64748b" stroke-width="0.45"/>
<path d="M57.4,-65.3 L50.6,-50.4 L60.3,-45.1 L67.1,-60.0 Z" fill="rgb(234,242,254)" fill-opacity="0.92" stroke="#64748b" stroke-width="0.45"/>
<path d="M-44.7,2.4 L-51.6,8.8 L-41.8,2.4 L-35.0,-4.1 Z" fill="rgb(236,242,254)" fill-opacity="0.92" stroke="#64748b" stroke-width="0.45"/>
<path d="M-1.9,-30.0 L-8.7,-20.2 L1.0,-21.6 L7.8,-31.5 Z" fill="rgb(237,243,254)" fill-opacity="0.92" stroke="#64748b" stroke-width="0.45"/>
<path d="M40.9,-54.0 L34.1,-40.8 L43.8,-37.2 L50.6,-50.4 Z" fill="rgb(235,242,254)" fill-opacity="0.92" stroke="#64748b" stroke-width="0.45"/>
<path d="M-61.3,17.0 L-68.1,21.8 L-58.4,13.6 L-51.6,8.8 Z" fill="rgb(234,242,254)" fill-opacity="0.92" stroke="#64748b" stroke-width="0.45"/>
<path d="M83.7,-69.6 L76.9,-53.0 L86.6,-44.4 L93.4,-60.9 Z" fill="rgb(231,240,254)" fill-opacity="0.92" stroke="#64748b" stroke-width="0.45"/>
<path d="M-18.5,-17.1 L-25.3,-8.9 L-15.6,-12.0 L-8.7,-20.2 Z" fill="rgb(237,243,254)" fill-opacity="0.92" stroke="#64748b" stroke-width="0.45"/>
<path d="M24.3,-42.7 L17.5,-31.2 L27.2,-29.3 L34.1,-40.8 Z" fill="rgb(236,243,254)" fill-opacity="0.92" stroke="#64748b" stroke-width="0.45"/>
<path d="M-77.8,31.6 L-84.6,34.8 L-74.9,24.9 L-68.1,21.8 Z" fill="rgb(233,241,254)" fill-opacity="0.92" stroke="#64748b" stroke-width="0.45"/>
<path d="M67.1,-60.0 L60.3,-45.1 L70.0,-38.1 L76.9,-53.0 Z" fill="rgb(233,241,254)" fill-opacity="0.92" stroke="#64748b" stroke-width="0.45"/>
<path d="M-35.0,-4.1 L-41.8,2.4 L-32.1,-2.4 L-25.3,-8.9 Z" fill="rgb(236,243,254)" fill-opacity="0.92" stroke="#64748b" stroke-width="0.45"/>
<path d="M7.8,-31.5 L1.0,-21.6 L10.7,-21.4 L17.5,-31.2 Z" fill="rgb(237,243,254)" fill-opacity="0.92" stroke="#64748b" stroke-width="0.45"/>
<path d="M50.6,-50.4 L43.8,-37.2 L53.5,-31.9 L60.3,-45.1 Z" fill="rgb(234,242,254)" fill-opacity="0.92" stroke="#64748b" stroke-width="0.45"/>
<path d="M-51.6,8.8 L-58.4,13.6 L-48.6,7.2 L-41.8,2.4 Z" fill="rgb(235,242,254)" fill-opacity="0.92" stroke="#64748b" stroke-width="0.45"/>
<path d="M93.4,-60.9 L86.6,-44.4 L96.3,-34.0 L103.1,-50.6 Z" fill="rgb(230,240,254)" fill-opacity="0.92" stroke="#64748b" stroke-width="0.45"/>
<path d="M-8.7,-20.2 L-15.6,-12.0 L-5.8,-13.5 L1.0,-21.6 Z" fill="rgb(237,243,254)" fill-opacity="0.92" stroke="#64748b" stroke-width="0.45"/>
<path d="M34.1,-40.8 L27.2,-29.3 L37.0,-25.7 L43.8,-37.2 Z" fill="rgb(236,243,254)" fill-opacity="0.92" stroke="#64748b" stroke-width="0.45"/>
<path d="M-68.1,21.8 L-74.9,24.9 L-65.2,16.8 L-58.4,13.6 Z" fill="rgb(233,241,254)" fill-opacity="0.92" stroke="#64748b" stroke-width="0.45"/>
<path d="M76.9,-53.0 L70.0,-38.1 L79.8,-29.5 L86.6,-44.4 Z" fill="rgb(232,240,254)" fill-opacity="0.92" stroke="#64748b" stroke-width="0.45"/>
<path d="M-25.3,-8.9 L-32.1,-2.4 L-22.4,-5.5 L-15.6,-12.0 Z" fill="rgb(237,243,254)" fill-opacity="0.92" stroke="#64748b" stroke-width="0.45"/>
<path d="M17.5,-31.2 L10.7,-21.4 L20.4,-19.4 L27.2,-29.3 Z" fill="rgb(237,243,254)" fill-opacity="0.92" stroke="#64748b" stroke-width="0.45"/>
<path d="M-84.6,34.8 L-91.4,36.2 L-81.7,26.4 L-74.9,24.9 Z" fill="rgb(232,240,254)" fill-opacity="0.92" stroke="#64748b" stroke-width="0.45"/>
<path d="M60.3,-45.1 L53.5,-31.9 L63.2,-24.9 L70.0,-38.1 Z" fill="rgb(233,241,254)" fill-opacity="0.92" stroke="#64748b" stroke-width="0.45"/>
<path d="M-41.8,2.4 L-48.6,7.2 L-38.9,2.4 L-32.1,-2.4 Z" fill="rgb(235,242,254)" fill-opacity="0.92" stroke="#64748b" stroke-width="0.45"/>
<path d="M103.1,-50.6 L96.3,-34.0 L106.0,-22.0 L112.9,-38.6 Z" fill="rgb(229,239,254)" fill-opacity="0.92" stroke="#64748b" stroke-width="0.45"/>
<path d="M1.0,-21.6 L-5.8,-13.5 L3.9,-13.2 L10.7,-21.4 Z" fill="rgb(237,243,254)" fill-opacity="0.92" stroke="#64748b" stroke-width="0.45"/>
<path d="M43.8,-37.2 L37.0,-25.7 L46.7,-20.4 L53.5,-31.9 Z" fill="rgb(235,242,254)" fill-opacity="0.92" stroke="#64748b" stroke-width="0.45"/>
<path d="M-58.4,13.6 L-65.2,16.8 L-55.4,10.3 L-48.6,7.2 Z" fill="rgb(234,242,254)" fill-opacity="0.92" stroke="#64748b" stroke-width="0.45"/>
<path d="M86.6,-44.4 L79.8,-29.5 L89.5,-19.1 L96.3,-34.0 Z" fill="rgb(230,240,254)" fill-opacity="0.92" stroke="#64748b" stroke-width="0.45"/>
<path d="M-15.6,-12.0 L-22.4,-5.5 L-12.6,-7.0 L-5.8,-13.5 Z" fill="rgb(237,243,254)" fill-opacity="0.92" stroke="#64748b" stroke-width="0.45"/>
<path d="M27.2,-29.3 L20.4,-19.4 L30.2,-15.8 L37.0,-25.7 Z" fill="rgb(236,243,254)" fill-opacity="0.92" stroke="#64748b" stroke-width="0.45"/>
<path d="M-74.9,24.9 L-81.7,26.4 L-72.0,18.2 L-65.2,16.8 Z" fill="rgb(232,241,254)" fill-opacity="0.92" stroke="#64748b" stroke-width="0.45"/>
<path d="M70.0,-38.1 L63.2,-24.9 L73.0,-16.3 L79.8,-29.5 Z" fill="rgb(232,240,254)" fill-opacity="0.92" stroke="#64748b" stroke-width="0.45"/>
<path d="M-32.1,-2.4 L-38.9,2.4 L-29.2,-0.7 L-22.4,-5.5 Z" fill="rgb(236,243,254)" fill-opacity="0.92" stroke="#64748b" stroke-width="0.45"/>
<path d="M112.9,-38.6 L106.0,-22.0 L115.8,-8.3 L122.6,-24.9 Z" fill="rgb(228,239,254)" fill-opacity="0.92" stroke="#64748b" stroke-width="0.45"/>
<path d="M10.7,-21.4 L3.9,-13.2 L13.6,-11.3 L20.4,-19.4 Z" fill="rgb(237,243,254)" fill-opacity="0.92" stroke="#64748b" stroke-width="0.45"/>
<path d="M-91.4,36.2 L-98.3,35.9 L-88.5,26.1 L-81.7,26.4 Z" fill="rgb(230,240,254)" fill-opacity="0.92" stroke="#64748b" stroke-width="0.45"/>
<path d="M53.5,-31.9 L46.7,-20.4 L56.4,-13.4 L63.2,-24.9 Z" fill="rgb(233,241,254)" fill-opacity="0.92" stroke="#64748b" stroke-width="0.45"/>
<path d="M-48.6,7.2 L-55.4,10.3 L-45.7,5.5 L-38.9,2.4 Z" fill="rgb(234,242,254)" fill-opacity="0.92" stroke="#64748b" stroke-width="0.45"/>
<path d="M96.3,-34.0 L89.5,-19.1 L99.2,-7.1 L106.0,-22.0 Z" fill="rgb(229,239,254)" fill-opacity="0.92" stroke="#64748b" stroke-width="0.45"/>
<path d="M-5.8,-13.5 L-12.6,-7.0 L-2.9,-6.7 L3.9,-13.2 Z" fill="rgb(237,243,254)" fill-opacity="0.92" stroke="#64748b" stroke-width="0.45"/>
<path d="M37.0,-25.7 L30.2,-15.8 L39.9,-10.5 L46.7,-20.4 Z" fill="rgb(235,242,254)" fill-opacity="0.92" stroke="#64748b" stroke-width="0.45"/>
<path d="M-65.2,16.8 L-72.0,18.2 L-62.3,11.7 L-55.4,10.3 Z" fill="rgb(233,241,254)" fill-opacity="0.92" stroke="#64748b" stroke-width="0.45"/>
<path d="M79.8,-29.5 L73.0,-16.3 L82.7,-5.9 L89.5,-19.1 Z" fill="rgb(230,240,254)" fill-opacity="0.92" stroke="#64748b" stroke-width="0.45"/>
<path d="M-22.4,-5.5 L-29.2,-0.7 L-19.5,-2.2 L-12.6,-7.0 Z" fill="rgb(236,243,254)" fill-opacity="0.92" stroke="#64748b" stroke-width="0.45"/>
<path d="M122.6,-24.9 L115.8,-8.3 L125.5,7.1 L132.3,-9.5 Z" fill="rgb(227,238,254)" fill-opacity="0.92" stroke="#64748b" stroke-width="0.45"/>
<path d="M20.4,-19.4 L13.6,-11.3 L23.3,-7.7 L30.2,-15.8 Z" fill="rgb(236,243,254)" fill-opacity="0.92" stroke="#64748b" stroke-width="0.45"/>
<path d="M-81.7,26.4 L-88.5,26.1 L-78.8,17.9 L-72.0,18.2 Z" fill="rgb(231,240,254)" fill-opacity="0.92" stroke="#64748b" stroke-width="0.45"/>
<path d="M63.2,-24.9 L56.4,-13.4 L66.2,-4.7 L73.0,-16.3 Z" fill="rgb(232,240,254)" fill-opacity="0.92" stroke="#64748b" stroke-width="0.45"/>
<path d="M-38.9,2.4 L-45.7,5.5 L-36.0,2.4 L-29.2,-0.7 Z" fill="rgb(235,242,254)" fill-opacity="0.92" stroke="#64748b" stroke-width="0.45"/>
<path d="M106.0,-22.0 L99.2,-7.1 L109.0,6.6 L115.8,-8.3 Z" fill="rgb(228,238,254)" fill-opacity="0.92" stroke="#64748b" stroke-width="0.45"/>
<path d="M3.9,-13.2 L-2.9,-6.7 L6.8,-4.8 L13.6,-11.3 Z" fill="rgb(236,243,254)" fill-opacity="0.92" stroke="#64748b" stroke-width="0.45"/>
<path d="M-98.3,35.9 L-105.1,34.0 L-95.3,24.2 L-88.5,26.1 Z" fill="rgb(229,239,254)" fill-opacity="0.92" stroke="#64748b" stroke-width="0.45"/>
<path d="M46.7,-20.4 L39.9,-10.5 L49.6,-3.6 L56.4,-13.4 Z" fill="rgb(233,241,254)" fill-opacity="0.92" stroke="#64748b" stroke-width="0.45"/>
<path d="M-55.4,10.3 L-62.3,11.7 L-52.5,6.9 L-45.7,5.5 Z" fill="rgb(233,241,254)" fill-opacity="0.92" stroke="#64748b" stroke-width="0.45"/>
<path d="M89.5,-19.1 L82.7,-5.9 L92.4,6.1 L99.2,-7.1 Z" fill="rgb(229,239,254)" fill-opacity="0.92" stroke="#64748b" stroke-width="0.45"/>
<path d="M-12.6,-7.0 L-19.5,-2.2 L-9.7,-1.9 L-2.9,-6.7 Z" fill="rgb(236,243,254)" fill-opacity="0.92" stroke="#64748b" stroke-width="0.45"/>
<path d="M30.2,-15.8 L23.3,-7.7 L33.1,-2.4 L39.9,-10.5 Z" fill="rgb(235,242,254)" fill-opacity="0.92" stroke="#64748b" stroke-width="0.45"/>
<path d="M-72.0,18.2 L-78.8,17.9 L-69.1,11.5 L-62.3,11.7 Z" fill="rgb(231,240,254)" fill-opacity="0.92" stroke="#64748b" stroke-width="0.45"/>
<path d="M73.0,-16.3 L66.2,-4.7 L75.9,5.6 L82.7,-5.9 Z" fill="rgb(230,240,254)" fill-opacity="0.92" stroke="#64748b" stroke-width="0.45"/>
<path d="M-29.2,-0.7 L-36.0,2.4 L-26.3,0.9 L-19.5,-2.2 Z" fill="rgb(235,242,254)" fill-opacity="0.92" stroke="#64748b" stroke-width="0.45"/>
<path d="M115.8,-8.3 L109.0,6.6 L118.7,22.0 L125.5,7.1 Z" fill="rgb(227,238,254)" fill-opacity="0.92" stroke="#64748b" stroke-width="0.45"/>
<path d="M13.6,-11.3 L6.8,-4.8 L16.5,-1.2 L23.3,-7.7 Z" fill="rgb(235,242,254)" fill-opacity="0.92" stroke="#64748b" stroke-width="0.45"/>
<path d="M-88.5,26.1 L-95.3,24.2 L-85.6,16.0 L-78.8,17.9 Z" fill="rgb(230,239,254)" fill-opacity="0.92" stroke="#64748b" stroke-width="0.45"/>
<path d="M56.4,-13.4 L49.6,-3.6 L59.3,5.1 L66.2,-4.7 Z" fill="rgb(232,240,254)" fill-opacity="0.92" stroke="#64748b" stroke-width="0.45"/>
<path d="M-45.7,5.5 L-52.5,6.9 L-42.8,3.8 L-36.0,2.4 Z" fill="rgb(233,241,254)" fill-opacity="0.92" stroke="#64748b" stroke-width="0.45"/>
<path d="M99.2,-7.1 L92.4,6.1 L102.1,19.8 L109.0,6.6 Z" fill="rgb(228,238,254)" fill-opacity="0.92" stroke="#64748b" stroke-width="0.45"/>
<path d="M-2.9,-6.7 L-9.7,-1.9 L0.0,0.0 L6.8,-4.8 Z" fill="rgb(236,242,254)" fill-opacity="0.92" stroke="#64748b" stroke-width="0.45"/>
<path d="M-105.1,34.0 L-111.9,30.4 L-102.1,20.6 L-95.3,24.2 Z" fill="rgb(228,238,254)" fill-opacity="0.92" stroke="#64748b" stroke-width="0.45"/>
<path d="M39.9,-10.5 L33.1,-2.4 L42.8,4.6 L49.6,-3.6 Z" fill="rgb(233,241,254)" fill-opacity="0.92" stroke="#64748b" stroke-width="0.45"/>
<path d="M-62.3,11.7 L-69.1,11.5 L-59.3,6.7 L-52.5,6.9 Z" fill="rgb(231,240,254)" fill-opacity="0.92" stroke="#64748b" stroke-width="0.45"/>
<path d="M82.7,-5.9 L75.9,5.6 L85.6,17.6 L92.4,6.1 Z" fill="rgb(229,239,254)" fill-opacity="0.92" stroke="#64748b" stroke-width="0.45"/>
<path d="M-19.5,-2.2 L-26.3,0.9 L-16.5,1.2 L-9.7,-1.9 Z" fill="rgb(235,242,254)" fill-opacity="0.92" stroke="#64748b" stroke-width="0.45"/>
<path d="M23.3,-7.7 L16.5,-1.2 L26.3,4.1 L33.1,-2.4 Z" fill="rgb(234,242,254)" fill-opacity="0.92" stroke="#64748b" stroke-width="0.45"/>
<path d="M-78.8,17.9 L-85.6,16.0 L-75.9,9.5 L-69.1,11.5 Z" fill="rgb(230,239,254)" fill-opacity="0.92" stroke="#64748b" stroke-width="0.45"/>
<path d="M66.2,-4.7 L59.3,5.1 L69.1,15.4 L75.9,5.6 Z" fill="rgb(230,240,254)" fill-opacity="0.92" stroke="#64748b" stroke-width="0.45"/>
<path d="M-36.0,2.4 L-42.8,3.8 L-33.1,2.4 L-26.3,0.9 Z" fill="rgb(233,241,254)" fill-opacity="0.92" stroke="#64748b" stroke-width="0.45"/>
<path d="M109.0,6.6 L102.1,19.8 L111.9,35.2 L118.7,22.0 Z" fill="rgb(227,238,254)" fill-opacity="0.92" stroke="#64748b" stroke-width="0.45"/>
<path d="M6.8,-4.8 L0.0,0.0 L9.7,3.6 L16.5,-1.2 Z" fill="rgb(235,242,254)" fill-opacity="0.92" stroke="#64748b" stroke-width="0.45"/>
<path d="M-95.3,24.2 L-102.1,20.6 L-92.4,12.4 L-85.6,16.0 Z" fill="rgb(228,239,254)" fill-opacity="0.92" stroke="#64748b" stroke-width="0.45"/>
<path d="M49.6,-3.6 L42.8,4.6 L52.5,13.3 L59.3,5.1 Z" fill="rgb(231,240,254)" fill-opacity="0.92" stroke="#64748b" stroke-width="0.45"/>
<path d="M-52.5,6.9 L-59.3,6.7 L-49.6,3.6 L-42.8,3.8 Z" fill="rgb(232,240,254)" fill-opacity="0.92" stroke="#64748b" stroke-width="0.45"/>
<path d="M92.4,6.1 L85.6,17.6 L95.3,31.3 L102.1,19.8 Z" fill="rgb(228,238,254)" fill-opacity="0.92" stroke="#64748b" stroke-width="0.45"/>
<path d="M-9.7,-1.9 L-16.5,1.2 L-6.8,3.1 L0.0,0.0 Z" fill="rgb(234,242,254)" fill-opacity="0.92" stroke="#64748b" stroke-width="0.45"/>
<path d="M-111.9,30.4 L-118.7,25.1 L-109.0,15.3 L-102.1,20.6 Z" fill="rgb(227,238,254)" fill-opacity="0.92" stroke="#64748b" stroke-width="0.45"/>
<path d="M33.1,-2.4 L26.3,4.1 L36.0,11.1 L42.8,4.6 Z" fill="rgb(232,241,254)" fill-opacity="0.92" stroke="#64748b" stroke-width="0.45"/>
<path d="M-69.1,11.5 L-75.9,9.5 L-66.2,4.7 L-59.3,6.7 Z" fill="rgb(230,239,254)" fill-opacity="0.92" stroke="#64748b" stroke-width="0.45"/>
<path d="M75.9,5.6 L69.1,15.4 L78.8,27.5 L85.6,17.6 Z" fill="rgb(229,239,254)" fill-opacity="0.92" stroke="#64748b" stroke-width="0.45"/>
<path d="M-26.3,0.9 L-33.1,2.4 L-23.3,2.6 L-16.5,1.2 Z" fill="rgb(233,241,254)" fill-opacity="0.92" stroke="#64748b" stroke-width="0.45"/>
<path d="M16.5,-1.2 L9.7,3.6 L19.5,8.9 L26.3,4.1 Z" fill="rgb(233,241,254)" fill-opacity="0.92" stroke="#64748b" stroke-width="0.45"/>
<path d="M-85.6,16.0 L-92.4,12.4 L-82.7,5.9 L-75.9,9.5 Z" fill="rgb(228,239,254)" fill-opacity="0.92" stroke="#64748b" stroke-width="0.45"/>
<path d="M59.3,5.1 L52.5,13.3 L62.3,23.6 L69.1,15.4 Z" fill="rgb(230,239,254)" fill-opacity="0.92" stroke="#64748b" stroke-width="0.45"/>
<path d="M-42.8,3.8 L-49.6,3.6 L-39.9,2.1 L-33.1,2.4 Z" fill="rgb(232,240,254)" fill-opacity="0.92" stroke="#64748b" stroke-width="0.45"/>
<path d="M102.1,19.8 L95.3,31.3 L105.1,46.7 L111.9,35.2 Z" fill="rgb(226,238,254)" fill-opacity="0.92" stroke="#64748b" stroke-width="0.45"/>
<path d="M0.0,0.0 L-6.8,3.1 L2.9,6.7 L9.7,3.6 Z" fill="rgb(233,241,254)" fill-opacity="0.92" stroke="#64748b" stroke-width="0.45"/>
<path d="M-102.1,20.6 L-109.0,15.3 L-99.2,7.1 L-92.4,12.4 Z" fill="rgb(227,238,254)" fill-opacity="0.92" stroke="#64748b" stroke-width="0.45"/>
<path d="M42.8,4.6 L36.0,11.1 L45.7,19.7 L52.5,13.3 Z" fill="rgb(231,240,254)" fill-opacity="0.92" stroke="#64748b" stroke-width="0.45"/>
<path d="M-59.3,6.7 L-66.2,4.7 L-56.4,1.6 L-49.6,3.6 Z" fill="rgb(230,239,254)" fill-opacity="0.92" stroke="#64748b" stroke-width="0.45"/>
<path d="M85.6,17.6 L78.8,27.5 L88.5,41.2 L95.3,31.3 Z" fill="rgb(227,238,254)" fill-opacity="0.92" stroke="#64748b" stroke-width="0.45"/>
<path d="M-16.5,1.2 L-23.3,2.6 L-13.6,4.6 L-6.8,3.1 Z" fill="rgb(233,241,254)" fill-opacity="0.92" stroke="#64748b" stroke-width="0.45"/>
<path d="M-118.7,25.1 L-125.5,18.1 L-115.8,8.3 L-109.0,15.3 Z" fill="rgb(226,237,254)" fill-opacity="0.92" stroke="#64748b" stroke-width="0.45"/>
<path d="M26.3,4.1 L19.5,8.9 L29.2,15.9 L36.0,11.1 Z" fill="rgb(232,240,254)" fill-opacity="0.92" stroke="#64748b" stroke-width="0.45"/>
<path d="M-75.9,9.5 L-82.7,5.9 L-73.0,1.1 L-66.2,4.7 Z" fill="rgb(228,239,254)" fill-opacity="0.92" stroke="#64748b" stroke-width="0.45"/>
<path d="M69.1,15.4 L62.3,23.6 L72.0,35.6 L78.8,27.5 Z" fill="rgb(228,238,254)" fill-opacity="0.92" stroke="#64748b" stroke-width="0.45"/>
<path d="M-33.1,2.4 L-39.9,2.1 L-30.2,2.4 L-23.3,2.6 Z" fill="rgb(231,240,254)" fill-opacity="0.92" stroke="#64748b" stroke-width="0.45"/>
<path d="M9.7,3.6 L2.9,6.7 L12.6,12.0 L19.5,8.9 Z" fill="rgb(232,241,254)" fill-opacity="0.92" stroke="#64748b" stroke-width="0.45"/>
<path d="M-92.4,12.4 L-99.2,7.1 L-89.5,0.6 L-82.7,5.9 Z" fill="rgb(227,238,254)" fill-opacity="0.92" stroke="#64748b" stroke-width="0.45"/>
<path d="M52.5,13.3 L45.7,19.7 L55.4,30.1 L62.3,23.6 Z" fill="rgb(229,239,254)" fill-opacity="0.92" stroke="#64748b" stroke-width="0.45"/>
<path d="M-49.6,3.6 L-56.4,1.6 L-46.7,0.2 L-39.9,2.1 Z" fill="rgb(230,239,254)" fill-opacity="0.92" stroke="#64748b" stroke-width="0.45"/>
<path d="M95.3,31.3 L88.5,41.2 L98.3,56.5 L105.1,46.7 Z" fill="rgb(226,237,254)" fill-opacity="0.92" stroke="#64748b" stroke-width="0.45"/>
<path d="M-6.8,3.1 L-13.6,4.6 L-3.9,8.2 L2.9,6.7 Z" fill="rgb(232,240,254)" fill-opacity="0.92" stroke="#64748b" stroke-width="0.45"/>
<path d="M-109.0,15.3 L-115.8,8.3 L-106.0,0.1 L-99.2,7.1 Z" fill="rgb(226,237,254)" fill-opacity="0.92" stroke="#64748b" stroke-width="0.45"/>
<path d="M36.0,11.1 L29.2,15.9 L38.9,24.5 L45.7,19.7 Z" fill="rgb(230,239,254)" fill-opacity="0.92" stroke="#64748b" stroke-width="0.45"/>
<path d="M-66.2,4.7 L-73.0,1.1 L-63.2,-2.0 L-56.4,1.6 Z" fill="rgb(228,239,254)" fill-opacity="0.92" stroke="#64748b" stroke-width="0.45"/>
<path d="M78.8,27.5 L72.0,35.6 L81.7,49.3 L88.5,41.2 Z" fill="rgb(227,238,254)" fill-opacity="0.92" stroke="#64748b" stroke-width="0.45"/>
<path d="M-23.3,2.6 L-30.2,2.4 L-20.4,4.3 L-13.6,4.6 Z" fill="rgb(231,240,254)" fill-opacity="0.92" stroke="#64748b" stroke-width="0.45"/>
<path d="M-125.5,18.1 L-132.3,9.5 L-122.6,-0.4 L-115.8,8.3 Z" fill="rgb(225,237,254)" fill-opacity="0.92" stroke="#64748b" stroke-width="0.45"/>
<path d="M19.5,8.9 L12.6,12.0 L22.4,19.0 L29.2,15.9 Z" fill="rgb(230,240,254)" fill-opacity="0.92" stroke="#64748b" stroke-width="0.45"/>
<path d="M-82.7,5.9 L-89.5,0.6 L-79.8,-4.2 L-73.0,1.1 Z" fill="rgb(227,238,254)" fill-opacity="0.92" stroke="#64748b" stroke-width="0.45"/>
<path d="M62.3,23.6 L55.4,30.1 L65.2,42.1 L72.0,35.6 Z" fill="rgb(227,238,254)" fill-opacity="0.92" stroke="#64748b" stroke-width="0.45"/>
<path d="M-39.9,2.1 L-46.7,0.2 L-37.0,0.4 L-30.2,2.4 Z" fill="rgb(229,239,254)" fill-opacity="0.92" stroke="#64748b" stroke-width="0.45"/>
<path d="M2.9,6.7 L-3.9,8.2 L5.8,13.5 L12.6,12.0 Z" fill="rgb(230,240,254)" fill-opacity="0.92" stroke="#64748b" stroke-width="0.45"/>
<path d="M-99.2,7.1 L-106.0,0.1 L-96.3,-6.3 L-89.5,0.6 Z" fill="rgb(225,237,254)" fill-opacity="0.92" stroke="#64748b" stroke-width="0.45"/>
<path d="M45.7,19.7 L38.9,24.5 L48.6,34.9 L55.4,30.1 Z" fill="rgb(228,239,254)" fill-opacity="0.92" stroke="#64748b" stroke-width="0.45"/>
<path d="M-56.4,1.6 L-63.2,-2.0 L-53.5,-3.4 L-46.7,0.2 Z" fill="rgb(228,238,254)" fill-opacity="0.92" stroke="#64748b" stroke-width="0.45"/>
<path d="M88.5,41.2 L81.7,49.3 L91.4,64.7 L98.3,56.5 Z" fill="rgb(225,237,254)" fill-opacity="0.92" stroke="#64748b" stroke-width="0.45"/>
<path d="M-13.6,4.6 L-20.4,4.3 L-10.7,7.9 L-3.9,8.2 Z" fill="rgb(230,239,254)" fill-opacity="0.92" stroke="#64748b" stroke-width="0.45"/>
<path d="M-115.8,8.3 L-122.6,-0.4 L-112.9,-8.5 L-106.0,0.1 Z" fill="rgb(224,237,254)" fill-opacity="0.92" stroke="#64748b" stroke-width="0.45"/>
<path d="M29.2,15.9 L22.4,19.0 L32.1,27.6 L38.9,24.5 Z" fill="rgb(229,239,254)" fill-opacity="0.92" stroke="#64748b" stroke-width="0.45"/>
<path d="M-73.0,1.1 L-79.8,-4.2 L-70.0,-7.3 L-63.2,-2.0 Z" fill="rgb(226,238,254)" fill-opacity="0.92" stroke="#64748b" stroke-width="0.45"/>
<path d="M72.0,35.6 L65.2,42.1 L74.9,55.8 L81.7,49.3 Z" fill="rgb(226,237,254)" fill-opacity="0.92" stroke="#64748b" stroke-width="0.45"/>
<path d="M-30.2,2.4 L-37.0,0.4 L-27.2,2.4 L-20.4,4.3 Z" fill="rgb(229,239,254)" fill-opacity="0.92" stroke="#64748b" stroke-width="0.45"/>
<path d="M12.6,12.0 L5.8,13.5 L15.6,20.4 L22.4,19.0 Z" fill="rgb(229,239,254)" fill-opacity="0.92" stroke="#64748b" stroke-width="0.45"/>
<path d="M-89.5,0.6 L-96.3,-6.3 L-86.6,-11.1 L-79.8,-4.2 Z" fill="rgb(225,237,254)" fill-opacity="0.92" stroke="#64748b" stroke-width="0.45"/>
<path d="M55.4,30.1 L48.6,34.9 L58.4,46.9 L65.2,42.1 Z" fill="rgb(227,238,254)" fill-opacity="0.92" stroke="#64748b" stroke-width="0.45"/>
<path d="M-46.7,0.2 L-53.5,-3.4 L-43.8,-3.2 L-37.0,0.4 Z" fill="rgb(227,238,254)" fill-opacity="0.92" stroke="#64748b" stroke-width="0.45"/>
<path d="M-3.9,8.2 L-10.7,7.9 L-1.0,13.2 L5.8,13.5 Z" fill="rgb(229,239,254)" fill-opacity="0.92" stroke="#64748b" stroke-width="0.45"/>
<path d="M-106.0,0.1 L-112.9,-8.5 L-103.1,-15.0 L-96.3,-6.3 Z" fill="rgb(224,236,254)" fill-opacity="0.92" stroke="#64748b" stroke-width="0.45"/>
<path d="M38.9,24.5 L32.1,27.6 L41.8,38.0 L48.6,34.9 Z" fill="rgb(227,238,254)" fill-opacity="0.92" stroke="#64748b" stroke-width="0.45"/>
<path d="M-63.2,-2.0 L-70.0,-7.3 L-60.3,-8.7 L-53.5,-3.4 Z" fill="rgb(226,237,254)" fill-opacity="0.92" stroke="#64748b" stroke-width="0.45"/>
<path d="M81.7,49.3 L74.9,55.8 L84.6,71.2 L91.4,64.7 Z" fill="rgb(225,237,254)" fill-opacity="0.92" stroke="#64748b" stroke-width="0.45"/>
<path d="M-20.4,4.3 L-27.2,2.4 L-17.5,6.0 L-10.7,7.9 Z" fill="rgb(228,238,254)" fill-opacity="0.92" stroke="#64748b" stroke-width="0.45"/>
<path d="M22.4,19.0 L15.6,20.4 L25.3,29.1 L32.1,27.6 Z" fill="rgb(227,238,254)" fill-opacity="0.92" stroke="#64748b" stroke-width="0.45"/>
<path d="M-79.8,-4.2 L-86.6,-11.1 L-76.9,-14.2 L-70.0,-7.3 Z" fill="rgb(225,237,254)" fill-opacity="0.92" stroke="#64748b" stroke-width="0.45"/>
<path d="M65.2,42.1 L58.4,46.9 L68.1,60.6 L74.9,55.8 Z" fill="rgb(225,237,254)" fill-opacity="0.92" stroke="#64748b" stroke-width="0.45"/>
<path d="M-37.0,0.4 L-43.8,-3.2 L-34.1,-1.2 L-27.2,2.4 Z" fill="rgb(227,238,254)" fill-opacity="0.92" stroke="#64748b" stroke-width="0.45"/>
<path d="M5.8,13.5 L-1.0,13.2 L8.7,20.2 L15.6,20.4 Z" fill="rgb(227,238,254)" fill-opacity="0.92" stroke="#64748b" stroke-width="0.45"/>
<path d="M-96.3,-6.3 L-103.1,-15.0 L-93.4,-19.8 L-86.6,-11.1 Z" fill="rgb(224,236,254)" fill-opacity="0.92" stroke="#64748b" stroke-width="0.45"/>
<path d="M48.6,34.9 L41.8,38.0 L51.6,50.0 L58.4,46.9 Z" fill="rgb(226,237,254)" fill-opacity="0.92" stroke="#64748b" stroke-width="0.45"/>
<path d="M-53.5,-3.4 L-60.3,-8.7 L-50.6,-8.5 L-43.8,-3.2 Z" fill="rgb(226,237,254)" fill-opacity="0.92" stroke="#64748b" stroke-width="0.45"/>
<path d="M-10.7,7.9 L-17.5,6.0 L-7.8,11.3 L-1.0,13.2 Z" fill="rgb(227,238,254)" fill-opacity="0.92" stroke="#64748b" stroke-width="0.45"/>
<path d="M32.1,27.6 L25.3,29.1 L35.0,39.4 L41.8,38.0 Z" fill="rgb(226,237,254)" fill-opacity="0.92" stroke="#64748b" stroke-width="0.45"/>
<path d="M-70.0,-7.3 L-76.9,-14.2 L-67.1,-15.7 L-60.3,-8.7 Z" fill="rgb(225,237,254)" fill-opacity="0.92" stroke="#64748b" stroke-width="0.45"/>
<path d="M74.9,55.8 L68.1,60.6 L77.8,76.0 L84.6,71.2 Z" fill="rgb(224,236,254)" fill-opacity="0.92" stroke="#64748b" stroke-width="0.45"/>
<path d="M-27.2,2.4 L-34.1,-1.2 L-24.3,2.4 L-17.5,6.0 Z" fill="rgb(226,237,254)" fill-opacity="0.92" stroke="#64748b" stroke-width="0.45"/>
<path d="M15.6,20.4 L8.7,20.2 L18.5,28.8 L25.3,29.1 Z" fill="rgb(226,237,254)" fill-opacity="0.92" stroke="#64748b" stroke-width="0.45"/>
<path d="M-86.6,-11.1 L-93.4,-19.8 L-83.7,-22.9 L-76.9,-14.2 Z" fill="rgb(224,236,254)" fill-opacity="0.92" stroke="#64748b" stroke-width="0.45"/>
<path d="M58.4,46.9 L51.6,50.0 L61.3,63.7 L68.1,60.6 Z" fill="rgb(224,236,254)" fill-opacity="0.92" stroke="#64748b" stroke-width="0.45"/>
<path d="M-43.8,-3.2 L-50.6,-8.5 L-40.9,-6.5 L-34.1,-1.2 Z" fill="rgb(225,237,254)" fill-opacity="0.92" stroke="#64748b" stroke-width="0.45"/>
<path d="M-1.0,13.2 L-7.8,11.3 L1.9,18.3 L8.7,20.2 Z" fill="rgb(226,237,254)" fill-opacity="0.92" stroke="#64748b" stroke-width="0.45"/>
<path d="M41.8,38.0 L35.0,39.4 L44.7,51.4 L51.6,50.0 Z" fill="rgb(224,237,254)" fill-opacity="0.92" stroke="#64748b" stroke-width="0.45"/>
<path d="M-60.3,-8.7 L-67.1,-15.7 L-57.4,-15.4 L-50.6,-8.5 Z" fill="rgb(224,236,254)" fill-opacity="0.92" stroke="#64748b" stroke-width="0.45"/>
<path d="M-17.5,6.0 L-24.3,2.4 L-14.6,7.7 L-7.8,11.3 Z" fill="rgb(225,237,254)" fill-opacity="0.92" stroke="#64748b" stroke-width="0.45"/>
<path d="M25.3,29.1 L18.5,28.8 L28.2,39.2 L35.0,39.4 Z" fill="rgb(225,237,254)" fill-opacity="0.92" stroke="#64748b" stroke-width="0.45"/>
<path d="M-76.9,-14.2 L-83.7,-22.9 L-73.9,-24.3 L-67.1,-15.7 Z" fill="rgb(223,236,254)" fill-opacity="0.92" stroke="#64748b" stroke-width="0.45"/>
<path d="M68.1,60.6 L61.3,63.7 L71.0,79.1 L77.8,76.0 Z" fill="rgb(223,236,254)" fill-opacity="0.92" stroke="#64748b" stroke-width="0.45"/>
<path d="M-34.1,-1.2 L-40.9,-6.5 L-31.1,-2.9 L-24.3,2.4 Z" fill="rgb(224,236,254)" fill-opacity="0.92" stroke="#64748b" stroke-width="0.45"/>
<path d="M8.7,20.2 L1.9,18.3 L11.7,26.9 L18.5,28.8 Z" fill="rgb(224,237,254)" fill-opacity="0.92" stroke="#64748b" stroke-width="0.45"/>
<path d="M51.6,50.0 L44.7,51.4 L54.5,65.1 L61.3,63.7 Z" fill="rgb(223,236,254)" fill-opacity="0.92" stroke="#64748b" stroke-width="0.45"/>
<path d="M-50.6,-8.5 L-57.4,-15.4 L-47.7,-13.5 L-40.9,-6.5 Z" fill="rgb(223,236,254)" fill-opacity="0.92" stroke="#64748b" stroke-width="0.45"/>
<path d="M-7.8,11.3 L-14.6,7.7 L-4.9,14.6 L1.9,18.3 Z" fill="rgb(224,236,254)" fill-opacity="0.92" stroke="#64748b" stroke-width="0.45"/>
<path d="M35.0,39.4 L28.2,39.2 L37.9,51.2 L44.7,51.4 Z" fill="rgb(223,236,254)" fill-opacity="0.92" stroke="#64748b" stroke-width="0.45"/>
<path d="M-67.1,-15.7 L-73.9,-24.3 L-64.2,-24.1 L-57.4,-15.4 Z" fill="rgb(223,236,254)" fill-opacity="0.92" stroke="#64748b" stroke-width="0.45"/>
<path d="M-24.3,2.4 L-31.1,-2.9 L-21.4,2.4 L-14.6,7.7 Z" fill="rgb(223,236,254)" fill-opacity="0.92" stroke="#64748b" stroke-width="0.45"/>
<path d="M18.5,28.8 L11.7,26.9 L21.4,37.2 L28.2,39.2 Z" fill="rgb(223,236,254)" fill-opacity="0.92" stroke="#64748b" stroke-width="0.45"/>
<path d="M61.3,63.7 L54.5,65.1 L64.2,80.5 L71.0,79.1 Z" fill="rgb(222,235,254)" fill-opacity="0.92" stroke="#64748b" stroke-width="0.45"/>
<path d="M-40.9,-6.5 L-47.7,-13.5 L-38.0,-9.9 L-31.1,-2.9 Z" fill="rgb(223,236,254)" fill-opacity="0.92" stroke="#64748b" stroke-width="0.45"/>
<path d="M1.9,18.3 L-4.9,14.6 L4.9,23.3 L11.7,26.9 Z" fill="rgb(223,236,254)" fill-opacity="0.92" stroke="#64748b" stroke-width="0.45"/>
<path d="M44.7,51.4 L37.9,51.2 L47.7,64.9 L54.5,65.1 Z" fill="rgb(222,235,254)" fill-opacity="0.92" stroke="#64748b" stroke-width="0.45"/>
<path d="M-57.4,-15.4 L-64.2,-24.1 L-54.5,-22.2 L-47.7,-13.5 Z" fill="rgb(222,235,254)" fill-opacity="0.92" stroke="#64748b" stroke-width="0.45"/>
<path d="M-14.6,7.7 L-21.4,2.4 L-11.7,9.3 L-4.9,14.6 Z" fill="rgb(223,236,254)" fill-opacity="0.92" stroke="#64748b" stroke-width="0.45"/>
<path d="M28.2,39.2 L21.4,37.2 L31.1,49.3 L37.9,51.2 Z" fill="rgb(222,235,254)" fill-opacity="0.92" stroke="#64748b" stroke-width="0.45"/>
<path d="M-31.1,-2.9 L-38.0,-9.9 L-28.2,-4.6 L-21.4,2.4 Z" fill="rgb(222,235,254)" fill-opacity="0.92" stroke="#64748b" stroke-width="0.45"/>
<path d="M11.7,26.9 L4.9,23.3 L14.6,33.6 L21.4,37.2 Z" fill="rgb(222,235,254)" fill-opacity="0.92" stroke="#64748b" stroke-width="0.45"/>
<path d="M54.5,65.1 L47.7,64.9 L57.4,80.3 L64.2,80.5 Z" fill="rgb(221,235,254)" fill-opacity="0.92" stroke="#64748b" stroke-width="0.45"/>
<path d="M-47.7,-13.5 L-54.5,-22.2 L-44.8,-18.5 L-38.0,-9.9 Z" fill="rgb(221,235,254)" fill-opacity="0.92" stroke="#64748b" stroke-width="0.45"/>
<path d="M-4.9,14.6 L-11.7,9.3 L-2.0,18.0 L4.9,23.3 Z" fill="rgb(222,235,254)" fill-opacity="0.92" stroke="#64748b" stroke-width="0.45"/>
<path d="M37.9,51.2 L31.1,49.3 L40.8,63.0 L47.7,64.9 Z" fill="rgb(221,235,254)" fill-opacity="0.92" stroke="#64748b" stroke-width="0.45"/>
<path d="M-21.4,2.4 L-28.2,-4.6 L-18.5,2.4 L-11.7,9.3 Z" fill="rgb(221,235,254)" fill-opacity="0.92" stroke="#64748b" stroke-width="0.45"/>
<path d="M21.4,37.2 L14.6,33.6 L24.3,45.7 L31.1,49.3 Z" fill="rgb(221,235,254)" fill-opacity="0.92" stroke="#64748b" stroke-width="0.45"/>
<path d="M-38.0,-9.9 L-44.8,-18.5 L-35.0,-13.3 L-28.2,-4.6 Z" fill="rgb(221,235,254)" fill-opacity="0.92" stroke="#64748b" stroke-width="0.45"/>
<path d="M4.9,23.3 L-2.0,18.0 L7.8,28.3 L14.6,33.6 Z" fill="rgb(221,235,254)" fill-opacity="0.92" stroke="#64748b" stroke-width="0.45"/>
<path d="M47.7,64.9 L40.8,63.0 L50.6,78.3 L57.4,80.3 Z" fill="rgb(220,234,254)" fill-opacity="0.92" stroke="#64748b" stroke-width="0.45"/>
<path d="M-11.7,9.3 L-18.5,2.4 L-8.8,11.0 L-2.0,18.0 Z" fill="rgb(220,234,254)" fill-opacity="0.92" stroke="#64748b" stroke-width="0.45"/>
<path d="M31.1,49.3 L24.3,45.7 L34.0,59.4 L40.8,63.0 Z" fill="rgb(220,234,254)" fill-opacity="0.92" stroke="#64748b" stroke-width="0.45"/>
<path d="M-28.2,-4.6 L-35.0,-13.3 L-25.3,-6.3 L-18.5,2.4 Z" fill="rgb(220,234,254)" fill-opacity="0.92" stroke="#64748b" stroke-width="0.45"/>
<path d="M14.6,33.6 L7.8,28.3 L17.5,40.4 L24.3,45.7 Z" fill="rgb(220,234,254)" fill-opacity="0.92" stroke="#64748b" stroke-width="0.45"/>
<path d="M-2.0,18.0 L-8.8,11.0 L1.0,21.4 L7.8,28.3 Z" fill="rgb(220,234,254)" fill-opacity="0.92" stroke="#64748b" stroke-width="0.45"/>
<path d="M40.8,63.0 L34.0,59.4 L43.8,74.7 L50.6,78.3 Z" fill="rgb(219,234,254)" fill-opacity="0.92" stroke="#64748b" stroke-width="0.45"/>
<path d="M-18.5,2.4 L-25.3,-6.3 L-15.6,2.4 L-8.8,11.0 Z" fill="rgb(219,234,254)" fill-opacity="0.92" stroke="#64748b" stroke-width="0.45"/>
<path d="M24.3,45.7 L17.5,40.4 L27.2,54.1 L34.0,59.4 Z" fill="rgb(219,234,254)" fill-opacity="0.92" stroke="#64748b" stroke-width="0.45"/>
<path d="M7.8,28.3 L1.0,21.4 L10.7,33.4 L17.5,40.4 Z" fill="rgb(219,234,254)" fill-opacity="0.92" stroke="#64748b" stroke-width="0.45"/>
<path d="M-8.8,11.0 L-15.6,2.4 L-5.9,12.7 L1.0,21.4 Z" fill="rgb(219,233,254)" fill-opacity="0.92" stroke="#64748b" stroke-width="0.45"/>
<path d="M34.0,59.4 L27.2,54.1 L37.0,69.4 L43.8,74.7 Z" fill="rgb(218,233,254)" fill-opacity="0.92" stroke="#64748b" stroke-width="0.45"/>
<path d="M17.5,40.4 L10.7,33.4 L20.4,47.1 L27.2,54.1 Z" fill="rgb(218,233,254)" fill-opacity="0.92" stroke="#64748b" stroke-width="0.45"/>
<path d="M1.0,21.4 L-5.9,12.7 L3.9,24.7 L10.7,33.4 Z" fill="rgb(218,233,254)" fill-opacity="0.92" stroke="#64748b" stroke-width="0.45"/>
<path d="M27.2,54.1 L20.4,47.1 L30.1,62.5 L37.0,69.4 Z" fill="rgb(218,233,254)" fill-opacity="0.92" stroke="#64748b" stroke-width="0.45"/>
<path d="M10.7,33.4 L3.9,24.7 L13.6,38.4 L20.4,47.1 Z" fill="rgb(217,233,254)" fill-opacity="0.92" stroke="#64748b" stroke-width="0.45"/>
<path d="M20.4,47.1 L13.6,38.4 L23.3,53.8 L30.1,62.5 Z" fill="rgb(217,233,254)" fill-opacity="0.92" stroke="#64748b" stroke-width="0.45"/>
<path d="M54.5,-85.5 L52.7,-80.9 L50.9,-76.4 L49.0,-72.1 L47.2,-67.8 L45.4,-63.7 L43.6,-59.8 L41.8,-55.9 L40.0,-52.1 L38.1,-48.5 L36.3,-45.0 L34.5,-41.6 L32.7,-38.4 L30.9,-35.2 L29.1,-32.2 L27.2,-29.3 L25.4,-26.5 L23.6,-23.8 L21.8,-21.3 L20.0,-18.8 L18.2,-16.5 L16.3,-14.3 L14.5,-12.3 L12.7,-10.3 L10.9,-8.5 L9.1,-6.8 L7.3,-5.2 L5.4,-3.7 L3.6,-2.3 L1.8,-1.1 L0.0,0.0 L-1.8,1.0 L-3.6,1.9 L-5.4,2.6 L-7.3,3.3 L-9.1,3.8 L-10.9,4.2 L-12.7,4.5 L-14.5,4.6 L-16.3,4.7 L-18.2,4.6 L-20.0,4.4 L-21.8,4.1 L-23.6,3.6 L-25.4,3.1 L-27.2,2.4 L-29.1,1.6 L-30.9,0.7 L-32.7,-0.4 L-34.5,-1.5 L-36.3,-2.8 L-38.1,-4.2 L-40.0,-5.7 L-41.8,-7.4 L-43.6,-9.1 L-45.4,-11.0 L-47.2,-13.0 L-49.0,-15.1 L-50.9,-17.3 L-52.7,-19.7 L-54.5,-22.2" fill="none" stroke="#2563eb" stroke-width="2.4" stroke-linecap="round"/>
<path d="M-77.8,31.6 L-75.2,28.9 L-72.6,26.2 L-70.0,23.6 L-67.4,21.2 L-64.8,18.9 L-62.3,16.7 L-59.7,14.6 L-57.1,12.7 L-54.5,10.9 L-51.9,9.1 L-49.3,7.5 L-46.7,6.1 L-44.1,4.7 L-41.5,3.5 L-38.9,2.4 L-36.3,1.4 L-33.7,0.5 L-31.1,-0.3 L-28.5,-0.9 L-25.9,-1.4 L-23.3,-1.8 L-20.8,-2.1 L-18.2,-2.2 L-15.6,-2.3 L-13.0,-2.2 L-10.4,-2.0 L-7.8,-1.7 L-5.2,-1.2 L-2.6,-0.7 L0.0,0.0 L2.6,0.8 L5.2,1.7 L7.8,2.8 L10.4,3.9 L13.0,5.2 L15.6,6.6 L18.2,8.1 L20.8,9.7 L23.3,11.5 L25.9,13.4 L28.5,15.4 L31.1,17.5 L33.7,19.7 L36.3,22.1 L38.9,24.5 L41.5,27.1 L44.1,29.8 L46.7,32.7 L49.3,35.6 L51.9,38.7 L54.5,41.9 L57.1,45.2 L59.7,48.6 L62.3,52.2 L64.8,55.8 L67.4,59.6 L70.0,63.5 L72.6,67.6 L75.2,71.7 L77.8,76.0" fill="none" stroke="#dc2626" stroke-width="2.4" stroke-linecap="round"/>
<circle cx="0.0" cy="0.0" r="3.4" fill="#111827" stroke="#fff" stroke-width="1.1"/>
</svg>
